<?xml version="1.0" encoding="utf-8"?>
<!-- Generator: Adobe Illustrator 27.2.0, SVG Export Plug-In . SVG Version: 6.00 Build 0)  -->
<svg version="1.1" id="Capa_1" xmlns="http://www.w3.org/2000/svg" xmlns:xlink="http://www.w3.org/1999/xlink" x="0px" y="0px"
	 viewBox="0 0 339 142" style="enable-background:new 0 0 339 142;" xml:space="preserve">
<style type="text/css">
	.st0{fill:url(#SVGID_1_);}
	.st1{fill:url(#SVGID_00000049936561605673378590000000551099320545499062_);}
	.st2{fill:#136DE4;}
	.st3{display:none;fill:#FFFFFF;}
</style>
<linearGradient id="SVGID_1_" gradientUnits="userSpaceOnUse" x1="108.7104" y1="131.784" x2="212.3826" y2="77.9696" gradientTransform="matrix(1 0 0 -1 0 144)">
	<stop  offset="0" style="stop-color:#136DE4"/>
	<stop  offset="1" style="stop-color:#A5CCFF"/>
</linearGradient>
<path class="st0" d="M208.7,41.9L110.5,0c-3.2,28.5,11.3,41.9,19,45.1l79.1,31.7V41.9z"/>
<linearGradient id="SVGID_00000025423379358662994890000018280730282583839894_" gradientUnits="userSpaceOnUse" x1="212.8238" y1="85.6526" x2="127.7002" y2="48.4572" gradientTransform="matrix(1 0 0 -1 0 144)">
	<stop  offset="0" style="stop-color:#136DE4"/>
	<stop  offset="1" style="stop-color:#7FB6FF"/>
</linearGradient>
<path style="fill:url(#SVGID_00000025423379358662994890000018280730282583839894_);" d="M199.2,50.6c5.7-2.5,4.8-8.4,3.5-11.1
	l6,2.4c5.1,2.4,5.7,4.7,5.5,6.3v25.3c0,4.4-2.6,7.1-4,7.9L147.7,110V74.4C162.5,67.5,193.5,53.2,199.2,50.6z"/>
<path class="st2" d="M158.8,82.3c-5.7-2.5-4.5-8.4-3.2-11.1l-6.3,2.4c-3.6,1.6-5.5,4-5.5,6.3v25.3c0,4.4,2.6,7.1,4,7.9l65.7,28.5
	V106C198.7,99.2,164.5,84.8,158.8,82.3z"/>
<path class="st3" d="M194.5,97.3h-13.3L171,82.6h-11.4v14.8h-12.3v-53h23.1c14.2,0,23.2,7.3,23.2,19.2c0,8-4,13.8-11,16.7
	L194.5,97.3z M181,63.6c0-5.8-3.8-9.2-11.4-9.2h-10.1v18.5h10.1C177.2,72.8,181,69.3,181,63.6z"/>
<path class="st3" d="M270.5,44.3h11.8l-17.4,53h-13.3l-11.7-35.9l-12.1,35.9h-13.2l-17.5-53h12.8l12,37.3l12.6-37.3h11.4l12.2,37.6
	L270.5,44.3z"/>
<path class="st3" d="M325.8,97.3L321,86h-24.8l-4.7,11.4h-12.6l23.8-53h12.2l23.8,53H325.8z M300.3,76.7h16.9l-8.5-20.3L300.3,76.7z
	"/>
</svg>
