<svg width="339" height="142" viewBox="0 0 339 142" fill="none" xmlns="http://www.w3.org/2000/svg">
<path d="M98.577 41.9436L0.444725 0C-2.72083 28.49 11.788 41.9436 19.4381 45.1092L98.577 76.7648V41.9436Z" fill="white"/>
<path d="M89.077 50.6492C94.775 48.1167 93.9082 42.2077 92.5893 39.5697L98.5737 41.9439C103.669 44.318 104.26 46.6922 104.113 48.275V73.5994C104.113 78.0312 101.475 80.7219 100.156 81.5133L37.6367 110.003V74.3908C52.4093 67.5321 83.379 53.1816 89.077 50.6492Z" fill="white"/>
<path d="M48.7379 82.3047C43.0399 79.7722 44.2534 73.8632 45.5723 71.2252L39.2412 73.5994C35.6164 75.1822 33.7015 77.5563 33.7015 79.9305V105.255C33.7015 109.687 36.3395 112.377 37.6584 113.169L103.344 141.659V106.046C88.5712 99.1876 54.4359 84.8371 48.7379 82.3047Z" fill="white"/>
<path d="M194.498 97.3392H181.243L170.96 82.57H159.61V97.3392H147.27V44.3215H170.35C184.595 44.3215 193.507 51.6683 193.507 63.5594C193.507 71.512 189.47 77.3439 182.538 80.2978L194.498 97.3392ZM181.015 63.5594C181.015 57.7274 177.206 54.3191 169.665 54.3191H159.61V72.7996H169.665C177.206 72.7996 181.015 69.3156 181.015 63.5594Z" fill="white"/>
<path d="M270.546 44.3215H282.353L264.909 97.3392H251.655L239.924 61.4387L227.812 97.3392H214.634L197.114 44.3215H209.911L221.947 81.5854L234.516 44.3215H245.942L258.13 81.8883L270.546 44.3215Z" fill="white"/>
<path d="M325.772 97.3392L321.05 85.9782H296.293L291.57 97.3392H278.925L302.692 44.3215H314.88L338.722 97.3392H325.772ZM300.254 76.6623H317.165L308.709 56.3641L300.254 76.6623Z" fill="white"/>
</svg>
